<svg xmlns="http://www.w3.org/2000/svg" width="280.51" height="30.67" viewBox="0 0 280.51 30.67">
  <g id="Grupo_2449" data-name="Grupo 2449" transform="translate(-86.547 -122.208)">
    <g id="Grupo_2446" data-name="Grupo 2446" transform="translate(162.691 123.542)">
      <path id="Caminho_2640" data-name="Caminho 2640" d="M632.477,147.292V151.1H620.114V131.936h4.353v15.356ZM575.316,151.1a9.586,9.586,0,0,0,9.276-7.171l10.842,8.471,10.835-8.466V151.1h12.363v-3.809h-8.011V131.936h-4.353V139.1l-10.393,8.12-2.324-1.816,4.976-3.887,5.418-4.233-3.093-2.417-10.393,8.12-2.325-1.816,10.394-8.12-3.093-2.417-10.842,8.471a9.586,9.586,0,0,0-9.276-7.171h-7.769V151.1Zm-3.416-3.809V135.744h3.416a5.8,5.8,0,0,1,0,11.547Z" transform="translate(-567.547 -130.636)" fill="#fff"/>
      <g id="Grupo_2445" data-name="Grupo 2445" transform="translate(65.001 1.536)">
        <path id="Caminho_2641" data-name="Caminho 2641" d="M992.433,141.684h-5.926l-.269.269v16.971l-.269.269H984.89l-.27-.269V141.953l-.269-.269h-5.926l-.269-.269v-.808l.269-.269h14.007l.27.269v.808Z" transform="translate(-978.156 -140.337)" fill="#fff"/>
        <path id="Caminho_2642" data-name="Caminho 2642" d="M1055.186,180.211l-.269.269c0,1.616,1.077,4.849,4.579,4.849a3.589,3.589,0,0,0,3.771-2.694l.27-.269h1.078l.269.269c-.269,1.616-1.616,4.041-5.388,4.041-4.31,0-6.2-3.233-6.2-7v-.539c0-3.771,2.155-6.465,5.926-6.465s5.926,2.694,5.926,6.465v.808l-.269.269Zm8.351-1.616c0-1.886-1.078-4.579-4.31-4.579s-4.31,2.694-4.31,4.579l.269.269h8.081Z" transform="translate(-1041.405 -167.55)" fill="#fff"/>
        <path id="Caminho_2643" data-name="Caminho 2643" d="M1143.133,185.329a3.7,3.7,0,0,0,4.041-3.233l.269-.269h1.078l.269.269c-.269,2.694-2.424,4.58-5.657,4.58-3.5,0-6.2-2.155-6.2-7s2.694-7,6.2-7c3.233,0,5.388,1.886,5.657,4.579l-.269.269h-1.078l-.269-.269a3.7,3.7,0,0,0-4.041-3.233c-2.694,0-4.579,1.886-4.579,5.657S1140.439,185.329,1143.133,185.329Z" transform="translate(-1111.802 -167.55)" fill="#fff"/>
        <path id="Caminho_2644" data-name="Caminho 2644" d="M1236.454,159.193h-1.077l-.269-.269v-8.081c0-2.694-1.347-4.041-3.5-4.041-2.963,0-4.31,1.886-4.31,4.849v7.273l-.269.269h-1.077l-.269-.269V140.606l.269-.269h1.077l.269.269v7h.27a4.892,4.892,0,0,1,4.31-2.155c2.963,0,4.849,1.886,4.849,5.388v8.081Z" transform="translate(-1186.495 -140.337)" fill="#fff"/>
        <path id="Caminho_2645" data-name="Caminho 2645" d="M1323.368,186.406h-1.078l-.269-.269v-8.081c0-2.694-1.347-4.041-3.5-4.041-2.963,0-4.31,1.886-4.31,4.849v7.273l-.269.269h-1.077l-.269-.269v-12.93l.269-.269h.808l.269.269.269,1.616h.27a4.892,4.892,0,0,1,4.31-2.155c2.963,0,4.849,1.886,4.849,5.388v8.081Z" transform="translate(-1259.651 -167.55)" fill="#fff"/>
        <path id="Caminho_2646" data-name="Caminho 2646" d="M1396.357,179.672c0-4.58,2.694-7,6.2-7s6.2,2.424,6.2,7-2.694,7-6.2,7S1396.357,184.251,1396.357,179.672Zm1.616,0c0,3.5,1.885,5.657,4.579,5.657s4.579-2.155,4.579-5.657-1.885-5.657-4.579-5.657S1397.974,176.17,1397.974,179.672Z" transform="translate(-1330.154 -167.55)" fill="#fff"/>
        <path id="Caminho_2647" data-name="Caminho 2647" d="M1486.186,159.193h-1.077l-.269-.269V140.606l.269-.269h1.077l.269.269v18.318Z" transform="translate(-1404.629 -140.337)" fill="#fff"/>
        <path id="Caminho_2648" data-name="Caminho 2648" d="M1508.918,179.672c0-4.58,2.694-7,6.2-7s6.2,2.424,6.2,7-2.694,7-6.2,7S1508.918,184.251,1508.918,179.672Zm1.616,0c0,3.5,1.885,5.657,4.579,5.657s4.579-2.155,4.579-5.657-1.886-5.657-4.579-5.657S1510.534,176.17,1510.534,179.672Z" transform="translate(-1424.897 -167.55)" fill="#fff"/>
        <path id="Caminho_2649" data-name="Caminho 2649" d="M1605.924,184.52c-.538,1.077-1.885,2.155-4.31,2.155-3.771,0-5.657-2.963-5.657-7s1.885-7,5.657-7c2.424,0,3.771,1.078,4.31,2.155h.27l.269-1.616.269-.269h.808l.269.269V184.52c0,5.388-2.155,7.543-5.657,7.543-3.232,0-4.849-1.616-5.118-3.771l.269-.269h1.077l.27.269c.269,1.347,1.078,2.424,3.5,2.424,3.233,0,4.041-2.694,4.041-6.2Zm.27-4.849c0-3.771-1.616-5.657-4.31-5.657s-4.31,1.886-4.31,5.657,1.616,5.657,4.31,5.657S1606.193,183.443,1606.193,179.672Z" transform="translate(-1498.157 -167.55)" fill="#fff"/>
        <path id="Caminho_2650" data-name="Caminho 2650" d="M1689.322,149.3h-1.078l-.269-.269v-1.616l.269-.269h1.078l.269.269v1.616Zm0,15.624h-1.078l-.269-.269v-12.93l.269-.269h1.078l.269.269v12.93Z" transform="translate(-1575.608 -146.066)" fill="#fff"/>
        <path id="Caminho_2651" data-name="Caminho 2651" d="M1713.94,180.211l-.269.269c0,1.616,1.077,4.849,4.579,4.849a3.589,3.589,0,0,0,3.771-2.694l.27-.269h1.078l.269.269c-.269,1.616-1.616,4.041-5.388,4.041-4.31,0-6.2-3.233-6.2-7v-.539c0-3.771,2.155-6.465,5.926-6.465s5.926,2.694,5.926,6.465v.808l-.269.269Zm8.351-1.616c0-1.886-1.078-4.579-4.31-4.579s-4.31,2.694-4.31,4.579l.269.269h8.081Z" transform="translate(-1595.875 -167.55)" fill="#fff"/>
        <path id="Caminho_2652" data-name="Caminho 2652" d="M1798.978,186.676c-3.232,0-5.118-1.886-5.118-4.31l.269-.27h1.077l.27.27c0,1.616,1.078,2.963,3.5,2.963,2.694,0,3.5-1.078,3.5-2.424,0-2.155-1.347-2.424-4.041-2.963s-4.31-1.616-4.31-3.771c0-1.886,1.616-3.5,4.579-3.5,2.694,0,4.849,1.078,4.849,3.771l-.269.269h-1.078l-.27-.269c0-1.347-.808-2.424-3.232-2.424-1.886,0-2.963.808-2.963,2.155,0,1.886,1.616,2.155,4.31,2.694s4.041,1.616,4.041,4.041C1804.1,185.059,1802.48,186.676,1798.978,186.676Z" transform="translate(-1664.731 -167.55)" fill="#fff"/>
      </g>
    </g>
    <g id="Grupo_2448" data-name="Grupo 2448" transform="translate(86.547 122.207)">
      <path id="Caminho_2653" data-name="Caminho 2653" d="M144.7,126.807v6.959a.009.009,0,0,1-.017.006,5.937,5.937,0,0,0-4.8-1.98c-3.981,0-6.284,2.751-6.522,7.447,0,0-.022.5-.023.567-.034,4.131-1.049,6-3.136,6-1.488,0-2.927-.476-2.791-2.416a33.129,33.129,0,0,0-.408-6.977,5.85,5.85,0,0,0-6.128-4.669c-3.323,0-7.11,2.423-6.668,9.2a5.553,5.553,0,0,1-.612,3.2c-.563,1.053-1.677,1.752-4.186,1.667l-5.717.068a4.782,4.782,0,0,1-4.87-4.7.009.009,0,0,1,0-.007l.076-.076a.01.01,0,0,1,.007,0h9.876a1.807,1.807,0,0,0,1.171-.319,1.4,1.4,0,0,0,.461-1.28c0-3.987-2.1-6.879-5.47-7.546a7.208,7.208,0,0,0-1.391-.137h0a6.935,6.935,0,0,0-5.136,1.918,8.11,8.11,0,0,0-2.181,5.545v.832a9.986,9.986,0,0,0,1.739,5.738c0,.007-3.715.025-3.715.025a4.906,4.906,0,0,1-5.125-4.851l-.005-14.241a1.283,1.283,0,0,0-1.283-1.282h0a1.3,1.3,0,0,0-1.3,1.3V141.4a7.012,7.012,0,0,0,7.012,7.012H110.1c3.138,0,4.717-1.257,5.513-2.563a.009.009,0,0,1,.015,0,6.41,6.41,0,0,0,5.25,2.529,5,5,0,0,0,4.58-2.238.009.009,0,0,1,.015,0,4.719,4.719,0,0,0,4.477,2.264c2.253,0,3.784-.622,4.719-2.552a.01.01,0,0,1,.016,0,6.128,6.128,0,0,0,5.2,2.561h.3a7.118,7.118,0,0,0,7.1-7.1V126.751a1.263,1.263,0,0,0-1.261-1.263h0A1.319,1.319,0,0,0,144.7,126.807Zm-8.773,12.953c.065-2.53.888-5.375,4.266-5.375,3.531,0,4.272,3.109,4.272,5.718s-.741,5.719-4.272,5.719c-3.446,0-4.233-2.961-4.269-5.528,0-.06,0-.116,0-.177v-.357Zm-11.1.3c0,3.762-1.394,5.75-4.03,5.75-2.486,0-4.03-2.2-4.03-5.75s1.544-5.749,4.03-5.749C123.434,134.313,124.827,136.3,124.827,140.062Zm-25.845-1.647a.008.008,0,0,1,0-.006,4.047,4.047,0,0,1,4.357-4,4.581,4.581,0,0,1,3.137.987,4.192,4.192,0,0,1,1.235,3.089.008.008,0,0,1-.009.008l-8.636-.007-.006,0Z" transform="translate(-86.547 -124.969)" fill="#fff"/>
      <g id="Grupo_2447" data-name="Grupo 2447" transform="translate(22.949)">
        <path id="Caminho_2654" data-name="Caminho 2654" d="M263.012,279.3a1.273,1.273,0,0,0-1.128-.269,1.345,1.345,0,0,0-.609.345,10.376,10.376,0,0,1-5.869,2.8c-.3.039-.611.065-.914.078q-.219.009-.437.009a10.424,10.424,0,0,1-6.993-2.692,1.345,1.345,0,0,0-.794-.359,1.268,1.268,0,0,0-1.144.537,1.3,1.3,0,0,0,.181,1.708,12.99,12.99,0,0,0,8.75,3.389q.271,0,.544-.011c.378-.016.76-.048,1.137-.1a12.934,12.934,0,0,0,7.355-3.526,1.272,1.272,0,0,0,.389-.964A1.294,1.294,0,0,0,263.012,279.3Z" transform="translate(-242.769 -254.175)" fill="#f1af02"/>
        <path id="Caminho_2655" data-name="Caminho 2655" d="M254.357,128.857a13.024,13.024,0,0,0-11.91-6.638c-.2.008-.4.021-.6.038a13.1,13.1,0,0,0-10.158,6.445,1.266,1.266,0,0,0,.221,1.57l.029.028a1.248,1.248,0,0,0,.92.348,1.278,1.278,0,0,0,1.055-.639,10.509,10.509,0,0,1,8.155-5.179c.16-.014.321-.024.48-.031a10.444,10.444,0,0,1,9.573,5.36,1.264,1.264,0,0,0,1.107.647h.053a1.247,1.247,0,0,0,1.14-.848l.018-.052A1.278,1.278,0,0,0,254.357,128.857Z" transform="translate(-231.513 -122.207)" fill="#f1af02"/>
      </g>
    </g>
  </g>
</svg>
